<svg xmlns="http://www.w3.org/2000/svg" xmlns:xlink="http://www.w3.org/1999/xlink" width="500" zoomAndPan="magnify" viewBox="0 0 375.12 383.03998" height="500" preserveAspectRatio="xMidYMid meet" version="1.0"><defs><clipPath id="7508ad2091"><path d="M 0.03125 0 L 374.09375 0 L 374.09375 374.0625 L 0.03125 374.0625 Z M 0.03125 0 " clip-rule="nonzero"/></clipPath><clipPath id="dae6b5da30"><path d="M 37.4375 37.40625 L 336.6875 37.40625 L 336.6875 336.65625 L 37.4375 336.65625 Z M 37.4375 37.40625 " clip-rule="nonzero"/></clipPath><clipPath id="3c86441b7d"><path d="M 249.015625 37.40625 L 336.6875 125.078125 L 336.6875 248.984375 L 249.015625 336.65625 L 125.105469 336.65625 L 37.4375 248.984375 L 37.4375 125.078125 L 125.105469 37.40625 Z M 249.015625 37.40625 " clip-rule="nonzero"/></clipPath><clipPath id="c8cac2b700"><path d="M 0.4375 0.40625 L 299.6875 0.40625 L 299.6875 299.65625 L 0.4375 299.65625 Z M 0.4375 0.40625 " clip-rule="nonzero"/></clipPath><clipPath id="dbcd0e49f4"><path d="M 212.015625 0.40625 L 299.6875 88.078125 L 299.6875 211.984375 L 212.015625 299.65625 L 88.105469 299.65625 L 0.4375 211.984375 L 0.4375 88.078125 L 88.105469 0.40625 Z M 212.015625 0.40625 " clip-rule="nonzero"/></clipPath><clipPath id="d660617ddc"><rect x="0" width="300" y="0" height="300"/></clipPath><clipPath id="cef6886d4f"><path d="M 67.359375 67.332031 L 306.761719 67.332031 L 306.761719 306.730469 L 67.359375 306.730469 Z M 67.359375 67.332031 " clip-rule="nonzero"/></clipPath><clipPath id="2625af0549"><path d="M 236.625 67.332031 L 306.761719 137.46875 L 306.761719 236.59375 L 236.625 306.730469 L 137.496094 306.730469 L 67.359375 236.59375 L 67.359375 137.46875 L 137.496094 67.332031 Z M 236.625 67.332031 " clip-rule="nonzero"/></clipPath><clipPath id="f791c3cf16"><path d="M 0.359375 0.332031 L 239.761719 0.332031 L 239.761719 239.730469 L 0.359375 239.730469 Z M 0.359375 0.332031 " clip-rule="nonzero"/></clipPath><clipPath id="fa93045ac8"><path d="M 169.625 0.332031 L 239.761719 70.46875 L 239.761719 169.59375 L 169.625 239.730469 L 70.496094 239.730469 L 0.359375 169.59375 L 0.359375 70.46875 L 70.496094 0.332031 Z M 169.625 0.332031 " clip-rule="nonzero"/></clipPath><clipPath id="c99ea10263"><rect x="0" width="240" y="0" height="240"/></clipPath><clipPath id="3961df66a9"><path d="M 87.3125 87.28125 L 286.8125 87.28125 L 286.8125 286.78125 L 87.3125 286.78125 Z M 87.3125 87.28125 " clip-rule="nonzero"/></clipPath><clipPath id="7d7906f172"><path d="M 228.363281 87.28125 L 286.8125 145.726562 L 286.8125 228.332031 L 228.363281 286.78125 L 145.757812 286.78125 L 87.3125 228.332031 L 87.3125 145.726562 L 145.757812 87.28125 Z M 228.363281 87.28125 " clip-rule="nonzero"/></clipPath><clipPath id="46a4b4eb05"><path d="M 0.3125 0.28125 L 199.8125 0.28125 L 199.8125 199.78125 L 0.3125 199.78125 Z M 0.3125 0.28125 " clip-rule="nonzero"/></clipPath><clipPath id="019b3db918"><path d="M 141.363281 0.28125 L 199.8125 58.726562 L 199.8125 141.332031 L 141.363281 199.78125 L 58.757812 199.78125 L 0.3125 141.332031 L 0.3125 58.726562 L 58.757812 0.28125 Z M 141.363281 0.28125 " clip-rule="nonzero"/></clipPath><clipPath id="a38880ffda"><rect x="0" width="200" y="0" height="200"/></clipPath><clipPath id="80d7810201"><path d="M 127.210938 152.117188 L 246.910156 152.117188 L 246.910156 170.074219 L 127.210938 170.074219 Z M 127.210938 152.117188 " clip-rule="nonzero"/></clipPath><clipPath id="27e68ee47b"><path d="M 0.210938 0.117188 L 119.910156 0.117188 L 119.910156 18.074219 L 0.210938 18.074219 Z M 0.210938 0.117188 " clip-rule="nonzero"/></clipPath><clipPath id="af72336c57"><rect x="0" width="120" y="0" height="19"/></clipPath><clipPath id="2188b11956"><path d="M 147.160156 182.042969 L 226.960938 182.042969 L 226.960938 200 L 147.160156 200 Z M 147.160156 182.042969 " clip-rule="nonzero"/></clipPath><clipPath id="9cfcec948b"><path d="M 0.160156 0.0429688 L 79.960938 0.0429688 L 79.960938 18 L 0.160156 18 Z M 0.160156 0.0429688 " clip-rule="nonzero"/></clipPath><clipPath id="db2c4cb05e"><rect x="0" width="80" y="0" height="18"/></clipPath><clipPath id="eb81d57803"><path d="M 162.125 211.96875 L 212 211.96875 L 212 229.921875 L 162.125 229.921875 Z M 162.125 211.96875 " clip-rule="nonzero"/></clipPath><clipPath id="461f204255"><path d="M 0.125 0.96875 L 50 0.96875 L 50 18.921875 L 0.125 18.921875 Z M 0.125 0.96875 " clip-rule="nonzero"/></clipPath><clipPath id="595b023545"><rect x="0" width="50" y="0" height="19"/></clipPath></defs><g clip-path="url(#7508ad2091)"><path fill="#ffffff" d="M 0.03125 0 L 374.09375 0 L 374.09375 374.0625 L 0.03125 374.0625 Z M 0.03125 0 " fill-opacity="1" fill-rule="nonzero"/><path fill="#ffffff" d="M 0.03125 0 L 374.09375 0 L 374.09375 374.0625 L 0.03125 374.0625 Z M 0.03125 0 " fill-opacity="1" fill-rule="nonzero"/></g><g clip-path="url(#dae6b5da30)"><g clip-path="url(#3c86441b7d)"><g transform="matrix(1, 0, 0, 1, 37, 37)"><g clip-path="url(#d660617ddc)"><g clip-path="url(#c8cac2b700)"><g clip-path="url(#dbcd0e49f4)"><path fill="#000000" d="M 0.4375 0.40625 L 299.6875 0.40625 L 299.6875 299.65625 L 0.4375 299.65625 Z M 0.4375 0.40625 " fill-opacity="1" fill-rule="nonzero"/></g></g></g></g></g></g><g clip-path="url(#cef6886d4f)"><g clip-path="url(#2625af0549)"><g transform="matrix(1, 0, 0, 1, 67, 67)"><g clip-path="url(#c99ea10263)"><g clip-path="url(#f791c3cf16)"><g clip-path="url(#fa93045ac8)"><path fill="#1e4ed8" d="M 0.359375 0.332031 L 239.761719 0.332031 L 239.761719 239.730469 L 0.359375 239.730469 Z M 0.359375 0.332031 " fill-opacity="1" fill-rule="nonzero"/></g></g></g></g></g></g><g clip-path="url(#3961df66a9)"><g clip-path="url(#7d7906f172)"><g transform="matrix(1, 0, 0, 1, 87, 87)"><g clip-path="url(#a38880ffda)"><g clip-path="url(#46a4b4eb05)"><g clip-path="url(#019b3db918)"><path fill="#000000" d="M 0.3125 0.28125 L 199.8125 0.28125 L 199.8125 199.78125 L 0.3125 199.78125 Z M 0.3125 0.28125 " fill-opacity="1" fill-rule="nonzero"/></g></g></g></g></g></g><g clip-path="url(#80d7810201)"><g transform="matrix(1, 0, 0, 1, 127, 152)"><g clip-path="url(#af72336c57)"><g clip-path="url(#27e68ee47b)"><path fill="#ffffff" d="M 0.210938 0.117188 L 119.933594 0.117188 L 119.933594 18.074219 L 0.210938 18.074219 Z M 0.210938 0.117188 " fill-opacity="1" fill-rule="nonzero"/></g></g></g></g><g clip-path="url(#2188b11956)"><g transform="matrix(1, 0, 0, 1, 147, 182)"><g clip-path="url(#db2c4cb05e)"><g clip-path="url(#9cfcec948b)"><path fill="#ffffff" d="M 0.160156 0.0429688 L 79.976562 0.0429688 L 79.976562 18 L 0.160156 18 Z M 0.160156 0.0429688 " fill-opacity="1" fill-rule="nonzero"/></g></g></g></g><g clip-path="url(#eb81d57803)"><g transform="matrix(1, 0, 0, 1, 162, 211)"><g clip-path="url(#595b023545)"><g clip-path="url(#461f204255)"><path fill="#ffffff" d="M 0.125 0.96875 L 49.992188 0.96875 L 49.992188 18.921875 L 0.125 18.921875 Z M 0.125 0.96875 " fill-opacity="1" fill-rule="nonzero"/></g></g></g></g></svg>